<?xml version="1.0" standalone="no"?>
<!DOCTYPE svg PUBLIC "-//W3C//DTD SVG 20010904//EN"
 "http://www.w3.org/TR/2001/REC-SVG-20010904/DTD/svg10.dtd">
<svg version="1.0" xmlns="http://www.w3.org/2000/svg"
 width="700.000000pt" height="700.000000pt" viewBox="0 0 700.000000 700.000000"
 preserveAspectRatio="xMidYMid meet">
<metadata>
Created by potrace 1.14, written by Peter Selinger 2001-2017
</metadata>
<g transform="translate(0.000000,700.000000) scale(0.100000,-0.100000)"
fill="#000000" stroke="none">
<path d="M3398 6995 c-1 -1 -45 -6 -96 -9 -51 -4 -101 -9 -110 -11 -10 -2 -45
-6 -78 -9 -49 -6 -132 -21 -327 -61 -135 -28 -418 -136 -566 -216 -76 -42
-232 -137 -241 -148 -3 -3 -23 -19 -45 -36 -145 -106 -314 -276 -437 -440
-100 -133 -233 -381 -293 -546 -52 -144 -112 -357 -129 -464 -24 -143 -36
-232 -42 -300 -3 -44 -8 -91 -11 -105 -3 -14 -7 -1066 -8 -2338 l-2 -2312
1016 2 1016 3 0 810 0 810 290 0 290 1 3 901 2 901 -237 0 c-131 0 -263 1
-293 1 l-56 1 2 503 c1 527 6 596 50 731 53 163 162 277 300 313 16 4 534 8
1152 10 l1122 2 0 -358 0 -359 -512 0 c-282 -1 -516 -1 -520 -1 -5 -1 -8 -256
-8 -567 0 -449 3 -565 13 -561 32 12 127 36 167 42 25 4 54 9 65 11 32 7 175
5 235 -2 318 -38 612 -246 782 -554 25 -46 79 -174 82 -197 1 -7 5 -15 8 -18
7 -8 2 2279 -6 2360 -47 508 -131 853 -282 1158 -274 555 -745 885 -1435 1006
-63 11 -145 23 -182 26 -38 4 -83 8 -100 11 -35 6 -573 14 -579 9z"/>
<path d="M4897 2478 c-129 -28 -245 -157 -262 -293 l-7 -55 -334 0 c-260 0
-334 -3 -335 -12 -5 -50 -3 -694 2 -698 4 -3 156 -5 338 -4 l331 1 1 -206 c1
-113 2 -210 3 -216 23 -124 121 -242 228 -274 197 -59 397 47 448 239 14 51
19 1175 6 1244 -9 49 -46 122 -82 165 -79 94 -210 137 -337 109z"/>
<path d="M3955 417 l0 -412 420 -1 c233 -1 402 2 380 6 -107 22 -241 80 -350
153 -81 54 -229 206 -290 297 -55 84 -120 227 -137 304 -6 28 -14 54 -17 58
-4 4 -6 -178 -6 -405z"/>
<path d="M5967 723 c-92 -308 -403 -619 -697 -695 -19 -5 -48 -13 -65 -18 -17
-4 140 -8 376 -9 l406 -1 0 385 c0 212 -2 385 -3 385 -2 0 -10 -21 -17 -47z"/>
</g>
</svg>
